<svg width="16" height="18" viewBox="0 0 16 18" fill="none" xmlns="http://www.w3.org/2000/svg">
<circle cx="8" cy="10" r="8" fill="black"/>
<path d="M8.12108 15.216C7.22108 15.216 6.44108 15.012 5.78108 14.604C5.13308 14.196 4.62908 13.62 4.26908 12.876C3.92108 12.12 3.74708 11.238 3.74708 10.23C3.74708 9.222 3.92108 8.346 4.26908 7.602C4.62908 6.858 5.12708 6.282 5.76308 5.874C6.41108 5.454 7.17308 5.244 8.04908 5.244C8.87708 5.244 9.60908 5.442 10.2451 5.838C10.8811 6.222 11.3731 6.786 11.7211 7.53C12.0811 8.274 12.2611 9.18 12.2611 10.248V10.698H5.33108C5.39108 11.718 5.66108 12.486 6.14108 13.002C6.63308 13.518 7.29308 13.776 8.12108 13.776C8.74508 13.776 9.25508 13.632 9.65108 13.344C10.0591 13.044 10.3411 12.654 10.4971 12.174L12.1171 12.3C11.8651 13.152 11.3851 13.854 10.6771 14.406C9.98108 14.946 9.12908 15.216 8.12108 15.216ZM5.33108 9.366H10.6051C10.5331 8.442 10.2631 7.764 9.79508 7.332C9.33908 6.9 8.75708 6.684 8.04908 6.684C7.31708 6.684 6.71108 6.912 6.23108 7.368C5.76308 7.812 5.46308 8.478 5.33108 9.366Z" fill="white"/>
</svg>
