<svg width="84" height="18" viewBox="0 0 84 18" fill="none" xmlns="http://www.w3.org/2000/svg">
<circle cx="8" cy="10" r="8" fill="white"/>
<path d="M8.25389 15.216C7.35389 15.216 6.57389 15.012 5.91389 14.604C5.26589 14.196 4.76189 13.62 4.40189 12.876C4.05389 12.12 3.87989 11.238 3.87989 10.23C3.87989 9.222 4.05389 8.346 4.40189 7.602C4.76189 6.858 5.25989 6.282 5.89589 5.874C6.54389 5.454 7.30589 5.244 8.18189 5.244C9.00989 5.244 9.74189 5.442 10.3779 5.838C11.0139 6.222 11.5059 6.786 11.8539 7.53C12.2139 8.274 12.3939 9.18 12.3939 10.248V10.698H5.46389C5.52389 11.718 5.79389 12.486 6.27389 13.002C6.76589 13.518 7.42589 13.776 8.25389 13.776C8.87789 13.776 9.38789 13.632 9.78389 13.344C10.1919 13.044 10.4739 12.654 10.6299 12.174L12.2499 12.3C11.9979 13.152 11.5179 13.854 10.8099 14.406C10.1139 14.946 9.26189 15.216 8.25389 15.216ZM5.46389 9.366H10.7379C10.6659 8.442 10.3959 7.764 9.92789 7.332C9.47189 6.9 8.88989 6.684 8.18189 6.684C7.44989 6.684 6.84389 6.912 6.36389 7.368C5.89589 7.812 5.59589 8.478 5.46389 9.366Z" fill="black"/>
<path d="M23.4337 15C22.8791 15 22.4311 14.856 22.0897 14.568C21.7484 14.28 21.5777 13.8213 21.5777 13.192V3.64H23.2737V13.032C23.2737 13.224 23.3217 13.368 23.4177 13.464C23.5244 13.56 23.6737 13.608 23.8657 13.608H24.5377V15H23.4337ZM32.448 15.192C31.616 15.192 30.896 15.0107 30.288 14.648C29.6907 14.2853 29.2267 13.768 28.896 13.096C28.576 12.424 28.416 11.64 28.416 10.744C28.416 9.848 28.576 9.06933 28.896 8.408C29.2267 7.736 29.6907 7.21867 30.288 6.856C30.8853 6.48267 31.5893 6.296 32.4 6.296C33.168 6.296 33.8453 6.47733 34.432 6.84C35.0187 7.192 35.472 7.704 35.792 8.376C36.1227 9.048 36.288 9.85867 36.288 10.808V11.24H30.176C30.2187 12.072 30.4373 12.696 30.832 13.112C31.2373 13.528 31.7813 13.736 32.464 13.736C32.9653 13.736 33.3813 13.6187 33.712 13.384C34.0427 13.1493 34.272 12.8347 34.4 12.44L36.16 12.552C35.936 13.3413 35.4933 13.9813 34.832 14.472C34.1813 14.952 33.3867 15.192 32.448 15.192ZM30.176 9.96H34.496C34.4427 9.20267 34.224 8.64267 33.84 8.28C33.4667 7.91733 32.9867 7.736 32.4 7.736C31.792 7.736 31.2907 7.928 30.896 8.312C30.512 8.68533 30.272 9.23467 30.176 9.96ZM44.2465 15.192C43.4465 15.192 42.7692 15.0693 42.2145 14.824C41.6705 14.5787 41.2492 14.2427 40.9505 13.816C40.6518 13.3787 40.4812 12.8773 40.4385 12.312L42.1825 12.232C42.2678 12.7013 42.4705 13.0747 42.7905 13.352C43.1105 13.6293 43.5958 13.768 44.2465 13.768C44.7798 13.768 45.2012 13.6827 45.5105 13.512C45.8198 13.3413 45.9745 13.0693 45.9745 12.696C45.9745 12.4933 45.9212 12.3227 45.8145 12.184C45.7185 12.0347 45.5265 11.912 45.2385 11.816C44.9505 11.7093 44.5238 11.608 43.9585 11.512C43.1158 11.352 42.4545 11.1653 41.9745 10.952C41.4945 10.7387 41.1532 10.4667 40.9505 10.136C40.7478 9.80533 40.6465 9.40533 40.6465 8.936C40.6465 8.15733 40.9345 7.52267 41.5105 7.032C42.0972 6.54133 42.9398 6.296 44.0385 6.296C44.7745 6.296 45.3932 6.424 45.8945 6.68C46.3958 6.92533 46.7852 7.26133 47.0625 7.688C47.3505 8.104 47.5318 8.57333 47.6065 9.096L45.8625 9.192C45.8092 8.89333 45.7025 8.63733 45.5425 8.424C45.3932 8.2 45.1905 8.02933 44.9345 7.912C44.6785 7.784 44.3745 7.72 44.0225 7.72C43.4785 7.72 43.0732 7.82667 42.8065 8.04C42.5398 8.25333 42.4065 8.53067 42.4065 8.872C42.4065 9.128 42.4652 9.336 42.5825 9.496C42.7105 9.656 42.9132 9.78933 43.1905 9.896C43.4678 9.992 43.8358 10.0773 44.2945 10.152C45.1798 10.3013 45.8732 10.488 46.3745 10.712C46.8758 10.9253 47.2278 11.192 47.4305 11.512C47.6332 11.832 47.7345 12.2213 47.7345 12.68C47.7345 13.2133 47.5852 13.6667 47.2865 14.04C46.9878 14.4133 46.5772 14.7013 46.0545 14.904C45.5318 15.096 44.9292 15.192 44.2465 15.192ZM52.4109 15V3.64H54.1069V10.696L57.9309 6.488H60.0749L56.7469 10.072L60.2029 15H58.2509L55.6109 11.128L54.1069 12.728V15H52.4109ZM67.7186 15.192C66.9079 15.192 66.1986 15.0107 65.5906 14.648C64.9826 14.2853 64.5133 13.768 64.1826 13.096C63.8519 12.424 63.6866 11.64 63.6866 10.744C63.6866 9.83733 63.8519 9.05333 64.1826 8.392C64.5133 7.73067 64.9826 7.21867 65.5906 6.856C66.1986 6.48267 66.9079 6.296 67.7186 6.296C68.5293 6.296 69.2386 6.48267 69.8466 6.856C70.4546 7.21867 70.9239 7.73067 71.2546 8.392C71.5853 9.05333 71.7506 9.83733 71.7506 10.744C71.7506 11.64 71.5853 12.424 71.2546 13.096C70.9239 13.768 70.4546 14.2853 69.8466 14.648C69.2386 15.0107 68.5293 15.192 67.7186 15.192ZM67.7186 13.72C68.4439 13.72 69.0039 13.4587 69.3986 12.936C69.7933 12.4027 69.9906 11.672 69.9906 10.744C69.9906 9.816 69.7933 9.09067 69.3986 8.568C69.0039 8.03467 68.4439 7.768 67.7186 7.768C67.0039 7.768 66.4439 8.03467 66.0386 8.568C65.6439 9.09067 65.4466 9.816 65.4466 10.744C65.4466 11.672 65.6439 12.4027 66.0386 12.936C66.4439 13.4587 67.0039 13.72 67.7186 13.72ZM78.415 15L75.311 6.488H77.119L79.439 13.272L81.759 6.488H83.583L80.463 15H78.415Z" fill="white"/>
</svg>
