<svg width="156" height="22" viewBox="0 0 156 22" fill="none" xmlns="http://www.w3.org/2000/svg">
<circle cx="8" cy="13" r="8" fill="white"/>
<path d="M8.22951 18.216C7.32951 18.216 6.54951 18.012 5.88951 17.604C5.24151 17.196 4.73751 16.62 4.37751 15.876C4.02951 15.12 3.85551 14.238 3.85551 13.23C3.85551 12.222 4.02951 11.346 4.37751 10.602C4.73751 9.858 5.23551 9.282 5.87151 8.874C6.51951 8.454 7.28151 8.244 8.15752 8.244C8.98552 8.244 9.71752 8.442 10.3535 8.838C10.9895 9.222 11.4815 9.786 11.8295 10.53C12.1895 11.274 12.3695 12.18 12.3695 13.248V13.698H5.43951C5.49951 14.718 5.76951 15.486 6.24951 16.002C6.74151 16.518 7.40151 16.776 8.22951 16.776C8.85351 16.776 9.36351 16.632 9.75951 16.344C10.1675 16.044 10.4495 15.654 10.6055 15.174L12.2255 15.3C11.9735 16.152 11.4935 16.854 10.7855 17.406C10.0895 17.946 9.23751 18.216 8.22951 18.216ZM5.43951 12.366H10.7135C10.6415 11.442 10.3715 10.764 9.90352 10.332C9.44751 9.9 8.86551 9.684 8.15752 9.684C7.42552 9.684 6.81951 9.912 6.33951 10.368C5.87151 10.812 5.57151 11.478 5.43951 12.366Z" fill="black"/>
<path d="M25.2774 18C24.7867 18 24.3867 17.872 24.0774 17.616C23.768 17.36 23.6134 16.9547 23.6134 16.4V6.64H24.9574V16.288C24.9574 16.4587 25 16.592 25.0854 16.688C25.1814 16.7733 25.3147 16.816 25.4854 16.816H26.2214V18H25.2774ZM33.1772 18.192C32.3772 18.192 31.6839 18.0107 31.0972 17.648C30.5212 17.2853 30.0732 16.7733 29.7532 16.112C29.4439 15.44 29.2892 14.656 29.2892 13.76C29.2892 12.864 29.4439 12.0853 29.7532 11.424C30.0732 10.7627 30.5159 10.2507 31.0812 9.888C31.6572 9.51467 32.3346 9.328 33.1132 9.328C33.8492 9.328 34.4999 9.504 35.0652 9.856C35.6306 10.1973 36.0679 10.6987 36.3772 11.36C36.6972 12.0213 36.8572 12.8267 36.8572 13.776V14.176H30.6972C30.7506 15.0827 30.9906 15.7653 31.4172 16.224C31.8546 16.6827 32.4412 16.912 33.1772 16.912C33.7319 16.912 34.1852 16.784 34.5372 16.528C34.8999 16.2613 35.1506 15.9147 35.2892 15.488L36.7292 15.6C36.5052 16.3573 36.0786 16.9813 35.4492 17.472C34.8306 17.952 34.0732 18.192 33.1772 18.192ZM30.6972 12.992H35.3852C35.3212 12.1707 35.0812 11.568 34.6652 11.184C34.2599 10.8 33.7426 10.608 33.1132 10.608C32.4626 10.608 31.9239 10.8107 31.4972 11.216C31.0812 11.6107 30.8146 12.2027 30.6972 12.992ZM43.8457 18.192C43.0884 18.192 42.4431 18.0693 41.9097 17.824C41.3871 17.5787 40.9764 17.2427 40.6777 16.816C40.3897 16.3787 40.2244 15.8827 40.1817 15.328L41.5897 15.232C41.6751 15.744 41.8937 16.1547 42.2457 16.464C42.5977 16.7627 43.1311 16.912 43.8457 16.912C44.4217 16.912 44.8804 16.8213 45.2217 16.64C45.5737 16.448 45.7497 16.144 45.7497 15.728C45.7497 15.504 45.6964 15.3173 45.5897 15.168C45.4831 15.0187 45.2751 14.8907 44.9657 14.784C44.6564 14.6667 44.1977 14.5547 43.5897 14.448C42.7791 14.2987 42.1391 14.1173 41.6697 13.904C41.2111 13.68 40.8804 13.408 40.6777 13.088C40.4857 12.7573 40.3897 12.368 40.3897 11.92C40.3897 11.1627 40.6671 10.544 41.2217 10.064C41.7764 9.57333 42.5657 9.328 43.5897 9.328C44.2831 9.328 44.8644 9.456 45.3337 9.712C45.8137 9.95733 46.1871 10.288 46.4537 10.704C46.7311 11.1093 46.9124 11.5573 46.9977 12.048L45.5897 12.144C45.5257 11.8453 45.4084 11.584 45.2377 11.36C45.0671 11.1253 44.8431 10.944 44.5657 10.816C44.2884 10.6773 43.9577 10.608 43.5737 10.608C42.9657 10.608 42.5177 10.7253 42.2297 10.96C41.9417 11.1947 41.7977 11.4933 41.7977 11.856C41.7977 12.1333 41.8617 12.3627 41.9897 12.544C42.1284 12.7147 42.3471 12.8587 42.6457 12.976C42.9444 13.0827 43.3444 13.1787 43.8457 13.264C44.7097 13.4133 45.3817 13.5947 45.8617 13.808C46.3417 14.0213 46.6777 14.2827 46.8697 14.592C47.0617 14.9013 47.1577 15.28 47.1577 15.728C47.1577 16.2507 47.0084 16.6987 46.7097 17.072C46.4217 17.4347 46.0271 17.712 45.5257 17.904C45.0351 18.096 44.4751 18.192 43.8457 18.192ZM51.0721 18V6.64H52.4161V14.08L56.5441 9.52H58.3361L54.9921 13.12L58.4801 18H56.8481L54.0801 14.032L52.4161 15.792V18H51.0721ZM65.1047 18.192C64.3261 18.192 63.6434 18.0107 63.0567 17.648C62.4701 17.2853 62.0167 16.7733 61.6967 16.112C61.3767 15.44 61.2167 14.656 61.2167 13.76C61.2167 12.8533 61.3767 12.0693 61.6967 11.408C62.0167 10.7467 62.4701 10.2347 63.0567 9.872C63.6434 9.50933 64.3261 9.328 65.1047 9.328C65.8834 9.328 66.5607 9.50933 67.1367 9.872C67.7234 10.2347 68.1767 10.7467 68.4967 11.408C68.8167 12.0693 68.9767 12.8533 68.9767 13.76C68.9767 14.656 68.8167 15.44 68.4967 16.112C68.1767 16.7733 67.7234 17.2853 67.1367 17.648C66.5607 18.0107 65.8834 18.192 65.1047 18.192ZM65.1047 16.912C65.8834 16.912 66.4861 16.6347 66.9127 16.08C67.3501 15.5147 67.5687 14.7413 67.5687 13.76C67.5687 12.7787 67.3501 12.0107 66.9127 11.456C66.4861 10.8907 65.8834 10.608 65.1047 10.608C64.3261 10.608 63.7181 10.8907 63.2807 11.456C62.8434 12.0107 62.6247 12.7787 62.6247 13.76C62.6247 14.7413 62.8434 15.5147 63.2807 16.08C63.7181 16.6347 64.3261 16.912 65.1047 16.912ZM74.7984 18L71.7104 9.52H73.1824L75.6464 16.624L78.1104 9.52H79.5824L76.4944 18H74.7984Z" fill="white"/>
<path d="M89.5723 13.3301C89.5169 13.2747 89.4395 13.1862 89.3398 13.0645C89.2513 12.9316 89.1572 12.7988 89.0576 12.666C88.9691 12.5332 88.8805 12.4115 88.792 12.3008C88.7145 12.179 88.6592 12.0905 88.626 12.0352C88.5485 11.9688 88.4323 11.8249 88.2773 11.6035C88.1224 11.3711 87.9453 11.1055 87.7461 10.8066C87.5469 10.5078 87.3421 10.1924 87.1318 9.86035C86.9215 9.51725 86.7279 9.20182 86.5508 8.91406C86.3737 8.61523 86.2243 8.36621 86.1025 8.16699C85.9808 7.95671 85.9144 7.82943 85.9033 7.78516C85.6709 7.45312 85.444 7.12663 85.2227 6.80566C85.0013 6.4847 84.708 6.24674 84.3428 6.0918C84.2542 6.05859 84.1048 6.03092 83.8945 6.00879C83.6842 5.97559 83.4684 5.94238 83.2471 5.90918C83.0368 5.86491 82.8486 5.80957 82.6826 5.74316C82.5166 5.66569 82.4336 5.56055 82.4336 5.42773C82.4336 5.21745 82.5387 5.1123 82.749 5.1123C82.8597 5.1123 83.0977 5.12891 83.4629 5.16211C83.8392 5.19531 84.2764 5.21191 84.7744 5.21191C85.1286 5.21191 85.5104 5.20638 85.9199 5.19531C86.3405 5.17318 86.7611 5.15104 87.1816 5.12891C87.6133 5.0957 88.0283 5.07357 88.4268 5.0625C88.8363 5.04036 89.2015 5.0293 89.5225 5.0293C89.6774 5.0293 89.8213 5.0459 89.9541 5.0791C90.0869 5.1123 90.1533 5.22852 90.1533 5.42773C90.1533 5.50521 90.0924 5.56608 89.9707 5.61035C89.849 5.65462 89.694 5.69336 89.5059 5.72656C89.3288 5.7487 89.1296 5.77083 88.9082 5.79297C88.6979 5.80404 88.4987 5.82064 88.3105 5.84277C88.1335 5.86491 87.984 5.89258 87.8623 5.92578C87.7406 5.94792 87.6797 5.98665 87.6797 6.04199C87.6797 6.1748 87.7184 6.27995 87.7959 6.35742C87.818 6.40169 87.8789 6.49577 87.9785 6.63965C88.0781 6.78353 88.1888 6.93848 88.3105 7.10449C88.4323 7.27051 88.543 7.41992 88.6426 7.55273C88.7422 7.68555 88.8031 7.76302 88.8252 7.78516C88.9248 7.95117 89.0632 8.18913 89.2402 8.49902C89.4284 8.79785 89.6276 9.11328 89.8379 9.44531C90.0592 9.77734 90.2861 10.1038 90.5186 10.4248C90.751 10.7347 90.9613 10.9837 91.1494 11.1719C91.3044 11.3268 91.4427 11.4043 91.5645 11.4043C91.5866 11.4154 91.6143 11.4098 91.6475 11.3877C91.6807 11.3766 91.7249 11.3158 91.7803 11.2051C91.891 10.9727 92.0459 10.696 92.2451 10.375C92.4443 10.043 92.6491 9.7054 92.8594 9.3623C93.0807 9.01921 93.291 8.68164 93.4902 8.34961C93.6895 8.00651 93.8499 7.70215 93.9717 7.43652C94.0492 7.28158 94.1045 7.16536 94.1377 7.08789C94.182 6.99935 94.2041 6.90527 94.2041 6.80566C94.2041 6.56217 94.1322 6.36849 93.9883 6.22461C93.8444 6.08073 93.6673 5.97005 93.457 5.89258C93.2578 5.80404 93.042 5.73763 92.8096 5.69336C92.5882 5.64909 92.4001 5.59928 92.2451 5.54395C92.0902 5.52181 92.0127 5.4554 92.0127 5.34473C92.0127 5.25618 92.0459 5.18424 92.1123 5.12891C92.1787 5.0625 92.2507 5.0127 92.3281 4.97949C92.4167 4.94629 92.4997 4.92415 92.5771 4.91309C92.6546 4.89095 92.71 4.87988 92.7432 4.87988C92.9092 4.87988 93.0752 4.89095 93.2412 4.91309C93.4183 4.93522 93.5566 4.94629 93.6562 4.94629C94.1211 4.94629 94.6357 4.93522 95.2002 4.91309C95.7757 4.89095 96.3236 4.86328 96.8438 4.83008C97.3639 4.79688 97.8177 4.76921 98.2051 4.74707C98.5924 4.72493 98.8359 4.71387 98.9355 4.71387C99.0352 4.71387 99.1403 4.73047 99.251 4.76367C99.3727 4.78581 99.4336 4.85775 99.4336 4.97949C99.4336 5.1123 99.334 5.22852 99.1348 5.32812C98.9466 5.41667 98.7253 5.49967 98.4707 5.57715C98.2272 5.64355 97.9893 5.69889 97.7568 5.74316C97.5244 5.78743 97.3639 5.82064 97.2754 5.84277C97.054 5.92025 96.8548 5.99772 96.6777 6.0752C96.5117 6.15267 96.3568 6.24121 96.2129 6.34082C96.069 6.42936 95.9307 6.53451 95.7979 6.65625C95.665 6.76693 95.5322 6.89421 95.3994 7.03809C95.2777 7.19303 95.1615 7.35352 95.0508 7.51953C94.9401 7.67448 94.8184 7.82943 94.6855 7.98438C94.5195 8.20573 94.3258 8.46582 94.1045 8.76465C93.8831 9.06348 93.6618 9.37337 93.4404 9.69434C93.2191 10.0042 93.0088 10.3031 92.8096 10.5908C92.6104 10.8675 92.4443 11.0944 92.3115 11.2715C92.1898 11.3932 92.0846 11.5205 91.9961 11.6533C91.9186 11.7751 91.8799 11.9245 91.8799 12.1016C91.8799 12.168 91.9076 12.2565 91.9629 12.3672C92.0182 12.4779 92.0902 12.6051 92.1787 12.749C92.2673 12.8818 92.3613 13.0202 92.4609 13.1641C92.5605 13.3079 92.6546 13.4408 92.7432 13.5625C93.0309 13.9941 93.3187 14.4202 93.6064 14.8408C93.8942 15.2503 94.1986 15.6875 94.5195 16.1523C94.8405 16.6061 95.1891 17.1097 95.5654 17.6631C95.9417 18.2054 96.3568 18.8307 96.8105 19.5391C96.8548 19.5833 96.8936 19.6276 96.9268 19.6719C96.96 19.7161 96.9987 19.7493 97.043 19.7715C97.1647 19.8268 97.3141 19.8766 97.4912 19.9209C97.6794 19.9652 97.8786 20.0094 98.0889 20.0537C98.2992 20.098 98.5039 20.1478 98.7031 20.2031C98.9023 20.2474 99.0794 20.2917 99.2344 20.3359C99.334 20.3913 99.3893 20.4466 99.4004 20.502C99.4225 20.5462 99.4336 20.6182 99.4336 20.7178C99.4336 20.7842 99.417 20.8617 99.3838 20.9502C99.3617 21.0387 99.2897 21.083 99.168 21.083C98.4928 21.083 97.7513 21.0609 96.9434 21.0166C96.1465 20.9834 95.3662 20.9668 94.6025 20.9668C94.2152 20.9668 93.8001 20.9723 93.3574 20.9834C92.9258 20.9945 92.5661 21 92.2783 21C92.0902 21 91.9242 20.9889 91.7803 20.9668C91.6475 20.9336 91.5811 20.8285 91.5811 20.6514C91.5811 20.4411 91.7747 20.3083 92.1621 20.2529C92.3945 20.2197 92.6436 20.2031 92.9092 20.2031C93.208 20.2031 93.4294 20.1644 93.5732 20.0869C93.6839 19.9873 93.7393 19.8822 93.7393 19.7715C93.7393 19.6719 93.7116 19.5944 93.6562 19.5391C93.4349 19.1628 93.208 18.7975 92.9756 18.4434C92.7542 18.0892 92.5163 17.724 92.2617 17.3477C92.0182 16.9603 91.7526 16.5618 91.4648 16.1523C91.1882 15.7318 90.8838 15.2725 90.5518 14.7744C90.4743 14.6527 90.3857 14.5752 90.2861 14.542C90.1865 14.4977 90.1146 14.4756 90.0703 14.4756C89.8932 14.4756 89.7604 14.5531 89.6719 14.708C89.5944 14.8519 89.5059 14.9847 89.4062 15.1064C89.1296 15.5824 88.8418 16.0804 88.543 16.6006C88.2552 17.1097 87.9674 17.6742 87.6797 18.2939C87.6022 18.4268 87.5303 18.5817 87.4639 18.7588C87.3975 18.9248 87.3643 19.0576 87.3643 19.1572C87.3643 19.3122 87.4307 19.4561 87.5635 19.5889C87.6963 19.7217 87.8623 19.8434 88.0615 19.9541C88.2718 20.0537 88.4932 20.1367 88.7256 20.2031C88.958 20.2695 89.1738 20.3138 89.373 20.3359C89.4948 20.3581 89.5723 20.4189 89.6055 20.5186C89.6387 20.6182 89.6553 20.7012 89.6553 20.7676C89.6553 20.9225 89.5225 21 89.2568 21C88.8363 21 88.3493 20.9945 87.7959 20.9834C87.2536 20.9723 86.7002 20.9668 86.1357 20.9668C85.9033 20.9668 85.6543 20.9723 85.3887 20.9834C85.1341 20.9945 84.8851 21 84.6416 21H83.5459C83.391 21 83.236 21 83.0811 21C82.9261 20.9889 82.8486 20.9613 82.8486 20.917C82.8486 20.762 82.9648 20.6458 83.1973 20.5684C83.7064 20.4466 84.1491 20.3415 84.5254 20.2529C84.9017 20.1644 85.2061 20.0316 85.4385 19.8545C85.7152 19.6553 85.9919 19.3952 86.2686 19.0742C86.5452 18.7422 86.8164 18.377 87.082 17.9785C87.3587 17.5801 87.6299 17.1706 87.8955 16.75C88.1611 16.3294 88.4157 15.9255 88.6592 15.5381C88.8141 15.3167 88.9635 15.0788 89.1074 14.8242C89.2624 14.5697 89.4284 14.3317 89.6055 14.1104C89.6608 14.0218 89.6885 13.9056 89.6885 13.7617C89.6885 13.7064 89.6719 13.6344 89.6387 13.5459C89.6165 13.4463 89.5944 13.3743 89.5723 13.3301Z" fill="white"/>
<path d="M109.431 19.192C108.673 19.192 108.028 19.0693 107.495 18.824C106.972 18.5787 106.561 18.2427 106.263 17.816C105.975 17.3787 105.809 16.8827 105.767 16.328L107.174 16.232C107.26 16.744 107.479 17.1547 107.831 17.464C108.183 17.7627 108.716 17.912 109.431 17.912C110.007 17.912 110.465 17.8213 110.807 17.64C111.159 17.448 111.335 17.144 111.335 16.728C111.335 16.504 111.281 16.3173 111.175 16.168C111.068 16.0187 110.86 15.8907 110.551 15.784C110.241 15.6667 109.783 15.5547 109.174 15.448C108.364 15.2987 107.724 15.1173 107.255 14.904C106.796 14.68 106.465 14.408 106.263 14.088C106.071 13.7573 105.975 13.368 105.975 12.92C105.975 12.1627 106.252 11.544 106.807 11.064C107.361 10.5733 108.151 10.328 109.174 10.328C109.868 10.328 110.449 10.456 110.919 10.712C111.399 10.9573 111.772 11.288 112.039 11.704C112.316 12.1093 112.497 12.5573 112.583 13.048L111.175 13.144C111.111 12.8453 110.993 12.584 110.823 12.36C110.652 12.1253 110.428 11.944 110.151 11.816C109.873 11.6773 109.543 11.608 109.159 11.608C108.551 11.608 108.103 11.7253 107.815 11.96C107.527 12.1947 107.383 12.4933 107.383 12.856C107.383 13.1333 107.447 13.3627 107.575 13.544C107.713 13.7147 107.932 13.8587 108.231 13.976C108.529 14.0827 108.929 14.1787 109.431 14.264C110.295 14.4133 110.967 14.5947 111.447 14.808C111.927 15.0213 112.263 15.2827 112.455 15.592C112.647 15.9013 112.743 16.28 112.743 16.728C112.743 17.2507 112.593 17.6987 112.295 18.072C112.007 18.4347 111.612 18.712 111.111 18.904C110.62 19.096 110.06 19.192 109.431 19.192ZM118.577 19V7.64H119.921V12.392L119.761 12.36C119.868 11.8907 120.049 11.5067 120.305 11.208C120.561 10.9093 120.876 10.6907 121.249 10.552C121.622 10.4027 122.033 10.328 122.481 10.328C123.089 10.328 123.601 10.4667 124.017 10.744C124.444 11.0107 124.764 11.3893 124.977 11.88C125.201 12.36 125.313 12.9147 125.313 13.544V19H123.969V13.928C123.969 13.1067 123.82 12.4987 123.521 12.104C123.233 11.7093 122.79 11.512 122.193 11.512C121.51 11.512 120.961 11.72 120.545 12.136C120.129 12.552 119.921 13.1547 119.921 13.944V19H118.577ZM134.998 19.192C134.22 19.192 133.537 19.0107 132.95 18.648C132.364 18.2853 131.91 17.7733 131.59 17.112C131.27 16.44 131.11 15.656 131.11 14.76C131.11 13.8533 131.27 13.0693 131.59 12.408C131.91 11.7467 132.364 11.2347 132.95 10.872C133.537 10.5093 134.22 10.328 134.998 10.328C135.777 10.328 136.454 10.5093 137.03 10.872C137.617 11.2347 138.07 11.7467 138.39 12.408C138.71 13.0693 138.87 13.8533 138.87 14.76C138.87 15.656 138.71 16.44 138.39 17.112C138.07 17.7733 137.617 18.2853 137.03 18.648C136.454 19.0107 135.777 19.192 134.998 19.192ZM134.998 17.912C135.777 17.912 136.38 17.6347 136.806 17.08C137.244 16.5147 137.462 15.7413 137.462 14.76C137.462 13.7787 137.244 13.0107 136.806 12.456C136.38 11.8907 135.777 11.608 134.998 11.608C134.22 11.608 133.612 11.8907 133.174 12.456C132.737 13.0107 132.518 13.7787 132.518 14.76C132.518 15.7413 132.737 16.5147 133.174 17.08C133.612 17.6347 134.22 17.912 134.998 17.912ZM144.702 21.4V10.52H145.95L145.982 12.344L145.79 12.248C146.003 11.6187 146.355 11.144 146.846 10.824C147.347 10.4933 147.923 10.328 148.574 10.328C149.417 10.328 150.105 10.536 150.638 10.952C151.182 11.368 151.582 11.912 151.838 12.584C152.105 13.256 152.238 13.9813 152.238 14.76C152.238 15.5387 152.105 16.264 151.838 16.936C151.582 17.608 151.182 18.152 150.638 18.568C150.105 18.984 149.417 19.192 148.574 19.192C148.137 19.192 147.726 19.1173 147.342 18.968C146.969 18.8187 146.649 18.6107 146.382 18.344C146.126 18.0773 145.95 17.7627 145.854 17.4L146.046 17.176V21.4H144.702ZM148.446 17.912C149.182 17.912 149.763 17.6347 150.19 17.08C150.617 16.5253 150.83 15.752 150.83 14.76C150.83 13.768 150.617 12.9947 150.19 12.44C149.763 11.8853 149.182 11.608 148.446 11.608C147.955 11.608 147.529 11.7253 147.166 11.96C146.814 12.1947 146.537 12.5467 146.334 13.016C146.142 13.4853 146.046 14.0667 146.046 14.76C146.046 15.4533 146.142 16.0347 146.334 16.504C146.526 16.9733 146.803 17.3253 147.166 17.56C147.529 17.7947 147.955 17.912 148.446 17.912Z" fill="white"/>
</svg>
